# MagicaVoxel @ Ephtracy

# group
o 

# material
mtllib Wilhelm.mtl
usemtl palette

# normals
vn -1 0 0
vn 1 0 0
vn 0 0 1
vn 0 0 -1
vn 0 -1 0
vn 0 1 0

# texcoords
vt 0.158203 0.5
vt 0.751953 0.5
vt 0.962891 0.5
vt 0.990234 0.5

# verts
v -0.3 1 0.2
v -0.3 1 -0.3
v -0.3 1.1 0.2
v -0.3 1.1 -0.3
v -0.2 0.3 0
v -0.2 0.3 -0.1
v -0.2 0.5 0
v -0.2 0.5 -0.1
v -0.2 0.6 0.1
v -0.2 0.6 0
v -0.2 0.6 -0.1
v -0.2 0.6 -0.2
v -0.2 0.9 0.1
v -0.2 0.9 -0.2
v -0.2 1 0.1
v -0.2 1 -0.2
v -0.1 0 0
v -0.1 0 -0.1
v -0.1 0.1 0
v -0.1 0.1 -0.1
v -0.1 0.3 0
v -0.1 0.3 -0.1
v -0.1 0.4 -0.1
v -0.1 0.4 -0.2
v -0.1 0.5 0.1
v -0.1 0.5 0
v -0.1 0.5 -0.1
v -0.1 0.6 0.1
v -0.1 0.6 0
v -0.1 0.6 -0.1
v -0.1 0.6 -0.2
v 0 0.4 0.1
v 0 0.4 0
v 0 0.5 0.1
v 0 0.5 0
v 0 0.6 0.2
v 0 0.6 0.1
v 0 0.7 0.2
v 0 0.7 0.1
v 0.1 0 0
v 0.1 0 -0.1
v 0.1 0.1 0
v 0.1 0.1 -0.1
v 0.1 0.2 0
v 0.1 0.2 -0.1
v 0 0 0
v 0 0 -0.1
v 0 0.1 0
v 0 0.1 -0.1
v 0 0.2 0
v 0 0.2 -0.1
v 0.1 0.4 0.1
v 0.1 0.4 0
v 0.1 0.5 0.1
v 0.1 0.5 0
v 0.1 0.6 0.2
v 0.1 0.6 0.1
v 0.1 0.7 0.2
v 0.1 0.7 0.1
v 0.2 0 0
v 0.2 0 -0.1
v 0.2 0.1 0
v 0.2 0.1 -0.1
v 0.2 0.3 0
v 0.2 0.3 -0.1
v 0.2 0.4 -0.1
v 0.2 0.4 -0.2
v 0.2 0.5 0.1
v 0.2 0.5 0
v 0.2 0.5 -0.1
v 0.2 0.6 0.1
v 0.2 0.6 0
v 0.2 0.6 -0.1
v 0.2 0.6 -0.2
v 0.3 0.3 0
v 0.3 0.3 -0.1
v 0.3 0.5 0
v 0.3 0.5 -0.1
v 0.3 0.6 0.1
v 0.3 0.6 0
v 0.3 0.6 -0.1
v 0.3 0.6 -0.2
v 0.3 0.9 0.1
v 0.3 0.9 -0.2
v 0.3 1 0.1
v 0.3 1 -0.2
v 0.4 1 0.2
v 0.4 1 -0.3
v 0.4 1.1 0.2
v 0.4 1.1 -0.3
v -0.3 1 0.2
v -0.3 1.1 0.2
v 0 0.6 0.2
v 0 0.7 0.2
v 0.1 0.6 0.2
v 0.1 0.7 0.2
v 0.4 1 0.2
v 0.4 1.1 0.2
v -0.2 0.6 0.1
v -0.2 0.9 0.1
v -0.2 1 0.1
v -0.1 0.5 0.1
v -0.1 0.6 0.1
v -0.1 0.7 0.1
v -0.1 0.8 0.1
v 0 0.4 0.1
v 0 0.5 0.1
v 0 0.6 0.1
v 0 0.7 0.1
v 0 0.8 0.1
v 0.1 0.4 0.1
v 0.1 0.5 0.1
v 0.1 0.6 0.1
v 0.1 0.7 0.1
v 0.1 0.8 0.1
v 0.2 0.5 0.1
v 0.2 0.6 0.1
v 0.2 0.7 0.1
v 0.2 0.8 0.1
v 0.3 0.6 0.1
v 0.3 0.9 0.1
v 0.3 1 0.1
v -0.2 0.3 0
v -0.2 0.5 0
v -0.2 0.6 0
v -0.1 0 0
v -0.1 0.1 0
v -0.1 0.3 0
v -0.1 0.5 0
v -0.1 0.6 0
v 0 0 0
v 0 0.1 0
v 0 0.2 0
v 0 0.4 0
v 0 0.5 0
v 0.1 0 0
v 0.1 0.1 0
v 0.1 0.2 0
v 0.1 0.4 0
v 0.1 0.5 0
v 0.2 0 0
v 0.2 0.1 0
v 0.2 0.3 0
v 0.2 0.5 0
v 0.2 0.6 0
v 0.3 0.3 0
v 0.3 0.5 0
v 0.3 0.6 0
v -0.2 0.3 -0.1
v -0.2 0.5 -0.1
v -0.2 0.6 -0.1
v -0.1 0 -0.1
v -0.1 0.1 -0.1
v -0.1 0.3 -0.1
v -0.1 0.4 -0.1
v -0.1 0.5 -0.1
v -0.1 0.6 -0.1
v 0 0 -0.1
v 0 0.1 -0.1
v 0 0.2 -0.1
v 0.1 0 -0.1
v 0.1 0.1 -0.1
v 0.1 0.2 -0.1
v 0.2 0 -0.1
v 0.2 0.1 -0.1
v 0.2 0.3 -0.1
v 0.2 0.4 -0.1
v 0.2 0.5 -0.1
v 0.2 0.6 -0.1
v 0.3 0.3 -0.1
v 0.3 0.5 -0.1
v 0.3 0.6 -0.1
v -0.2 0.6 -0.2
v -0.2 0.9 -0.2
v -0.2 1 -0.2
v -0.1 0.4 -0.2
v -0.1 0.6 -0.2
v 0 0.5 -0.2
v 0 0.6 -0.2
v 0.1 0.5 -0.2
v 0.1 0.6 -0.2
v 0.2 0.4 -0.2
v 0.2 0.6 -0.2
v 0.3 0.6 -0.2
v 0.3 0.9 -0.2
v 0.3 1 -0.2
v -0.3 1 -0.3
v -0.3 1.1 -0.3
v 0.4 1 -0.3
v 0.4 1.1 -0.3
v -0.1 0 0
v 0 0 0
v 0.1 0 0
v 0.2 0 0
v -0.1 0 -0.1
v 0 0 -0.1
v 0.1 0 -0.1
v 0.2 0 -0.1
v 0 0.2 0
v 0.1 0.2 0
v 0 0.2 -0.1
v 0.1 0.2 -0.1
v -0.2 0.3 0
v -0.1 0.3 0
v 0.2 0.3 0
v 0.3 0.3 0
v -0.2 0.3 -0.1
v -0.1 0.3 -0.1
v 0.2 0.3 -0.1
v 0.3 0.3 -0.1
v 0 0.4 0.1
v 0.1 0.4 0.1
v 0 0.4 0
v 0.1 0.4 0
v -0.1 0.4 -0.1
v 0.2 0.4 -0.1
v -0.1 0.4 -0.2
v 0.2 0.4 -0.2
v -0.1 0.5 0.1
v 0 0.5 0.1
v 0.1 0.5 0.1
v 0.2 0.5 0.1
v -0.1 0.5 0
v 0 0.5 0
v 0.1 0.5 0
v 0.2 0.5 0
v 0 0.6 0.2
v 0.1 0.6 0.2
v -0.2 0.6 0.1
v -0.1 0.6 0.1
v 0 0.6 0.1
v 0.1 0.6 0.1
v 0.2 0.6 0.1
v 0.3 0.6 0.1
v -0.2 0.6 0
v -0.1 0.6 0
v 0.2 0.6 0
v 0.3 0.6 0
v -0.2 0.6 -0.1
v -0.1 0.6 -0.1
v 0.2 0.6 -0.1
v 0.3 0.6 -0.1
v -0.2 0.6 -0.2
v -0.1 0.6 -0.2
v 0.2 0.6 -0.2
v 0.3 0.6 -0.2
v -0.3 1 0.2
v 0.4 1 0.2
v -0.2 1 0.1
v 0.3 1 0.1
v -0.2 1 -0.2
v 0.3 1 -0.2
v -0.3 1 -0.3
v 0.4 1 -0.3
v 0 0.7 0.2
v 0.1 0.7 0.2
v 0 0.7 0.1
v 0.1 0.7 0.1
v -0.3 1.1 0.2
v 0.4 1.1 0.2
v -0.3 1.1 -0.3
v 0.4 1.1 -0.3

# faces
f 3/3/1 2/3/1 1/3/1
f 4/3/1 2/3/1 3/3/1
f 7/3/1 6/3/1 5/3/1
f 8/3/1 6/3/1 7/3/1
f 10/2/1 8/2/1 7/2/1
f 11/2/1 8/2/1 10/2/1
f 13/3/1 11/3/1 10/3/1
f 13/3/1 12/3/1 11/3/1
f 13/3/1 10/3/1 9/3/1
f 14/3/1 12/3/1 13/3/1
f 15/2/1 14/2/1 13/2/1
f 16/2/1 14/2/1 15/2/1
f 19/2/1 18/2/1 17/2/1
f 20/2/1 18/2/1 19/2/1
f 21/3/1 20/3/1 19/3/1
f 22/3/1 20/3/1 21/3/1
f 27/2/1 24/2/1 23/2/1
f 28/2/1 26/2/1 25/2/1
f 29/2/1 26/2/1 28/2/1
f 30/2/1 24/2/1 27/2/1
f 31/2/1 24/2/1 30/2/1
f 34/2/1 33/2/1 32/2/1
f 35/2/1 33/2/1 34/2/1
f 38/1/1 37/1/1 36/1/1
f 39/1/1 37/1/1 38/1/1
f 42/2/1 41/2/1 40/2/1
f 43/2/1 41/2/1 42/2/1
f 44/3/1 43/3/1 42/3/1
f 45/3/1 43/3/1 44/3/1
f 46/2/2 47/2/2 48/2/2
f 48/2/2 47/2/2 49/2/2
f 48/3/2 49/3/2 50/3/2
f 50/3/2 49/3/2 51/3/2
f 52/2/2 53/2/2 54/2/2
f 54/2/2 53/2/2 55/2/2
f 56/1/2 57/1/2 58/1/2
f 58/1/2 57/1/2 59/1/2
f 60/2/2 61/2/2 62/2/2
f 62/2/2 61/2/2 63/2/2
f 62/3/2 63/3/2 64/3/2
f 64/3/2 63/3/2 65/3/2
f 66/2/2 67/2/2 70/2/2
f 68/2/2 69/2/2 71/2/2
f 71/2/2 69/2/2 72/2/2
f 70/2/2 67/2/2 73/2/2
f 73/2/2 67/2/2 74/2/2
f 75/3/2 76/3/2 77/3/2
f 77/3/2 76/3/2 78/3/2
f 77/2/2 78/2/2 80/2/2
f 80/2/2 78/2/2 81/2/2
f 80/3/2 81/3/2 83/3/2
f 81/3/2 82/3/2 83/3/2
f 79/3/2 80/3/2 83/3/2
f 83/3/2 82/3/2 84/3/2
f 83/2/2 84/2/2 85/2/2
f 85/2/2 84/2/2 86/2/2
f 87/3/2 88/3/2 89/3/2
f 89/3/2 88/3/2 90/3/2
f 95/1/3 94/1/3 93/1/3
f 96/1/3 94/1/3 95/1/3
f 97/3/3 92/3/3 91/3/3
f 98/3/3 92/3/3 97/3/3
f 103/3/3 100/3/3 99/3/3
f 104/3/3 100/3/3 103/3/3
f 105/3/3 100/3/3 104/3/3
f 107/2/3 103/2/3 102/2/3
f 108/3/3 104/3/3 103/3/3
f 108/2/3 103/2/3 107/2/3
f 109/4/3 105/4/3 104/4/3
f 109/3/3 104/3/3 108/3/3
f 110/3/3 100/3/3 105/3/3
f 110/4/3 105/4/3 109/4/3
f 111/2/3 107/2/3 106/2/3
f 112/3/3 108/3/3 107/3/3
f 112/2/3 107/2/3 111/2/3
f 113/3/3 108/3/3 112/3/3
f 114/3/3 110/3/3 109/3/3
f 115/3/3 100/3/3 110/3/3
f 115/3/3 110/3/3 114/3/3
f 116/2/3 113/2/3 112/2/3
f 117/3/3 114/3/3 113/3/3
f 117/2/3 113/2/3 116/2/3
f 118/4/3 115/4/3 114/4/3
f 118/3/3 114/3/3 117/3/3
f 119/3/3 100/3/3 115/3/3
f 119/4/3 115/4/3 118/4/3
f 120/3/3 118/3/3 117/3/3
f 120/3/3 119/3/3 118/3/3
f 121/2/3 101/2/3 100/2/3
f 121/3/3 119/3/3 120/3/3
f 121/3/3 100/3/3 119/3/3
f 122/2/3 101/2/3 121/2/3
f 128/3/3 124/3/3 123/3/3
f 129/2/3 125/2/3 124/2/3
f 129/3/3 124/3/3 128/3/3
f 130/2/3 125/2/3 129/2/3
f 131/2/3 127/2/3 126/2/3
f 132/3/3 128/3/3 127/3/3
f 132/2/3 127/2/3 131/2/3
f 132/3/3 129/3/3 128/3/3
f 133/3/3 129/3/3 132/3/3
f 134/3/3 129/3/3 133/3/3
f 135/3/3 129/3/3 134/3/3
f 138/3/3 134/3/3 133/3/3
f 139/3/3 134/3/3 138/3/3
f 141/2/3 137/2/3 136/2/3
f 142/3/3 140/3/3 139/3/3
f 142/2/3 137/2/3 141/2/3
f 142/3/3 138/3/3 137/3/3
f 142/3/3 139/3/3 138/3/3
f 143/3/3 140/3/3 142/3/3
f 144/3/3 140/3/3 143/3/3
f 146/3/3 144/3/3 143/3/3
f 147/2/3 145/2/3 144/2/3
f 147/3/3 144/3/3 146/3/3
f 148/2/3 145/2/3 147/2/3
f 149/3/4 150/3/4 154/3/4
f 154/3/4 150/3/4 155/3/4
f 150/2/4 151/2/4 156/2/4
f 155/3/4 150/3/4 156/3/4
f 156/2/4 151/2/4 157/2/4
f 152/2/4 153/2/4 158/2/4
f 154/3/4 155/3/4 159/3/4
f 158/2/4 153/2/4 159/2/4
f 153/3/4 154/3/4 159/3/4
f 159/3/4 155/3/4 160/3/4
f 160/3/4 155/3/4 163/3/4
f 161/2/4 162/2/4 164/2/4
f 162/3/4 163/3/4 165/3/4
f 164/2/4 162/2/4 165/2/4
f 163/3/4 155/3/4 166/3/4
f 165/3/4 163/3/4 166/3/4
f 166/3/4 155/3/4 167/3/4
f 167/3/4 168/3/4 170/3/4
f 166/3/4 167/3/4 170/3/4
f 168/2/4 169/2/4 171/2/4
f 170/3/4 168/3/4 171/3/4
f 171/2/4 169/2/4 172/2/4
f 173/3/4 174/3/4 177/3/4
f 176/2/4 177/2/4 178/2/4
f 177/3/4 174/3/4 179/3/4
f 178/2/4 177/2/4 179/2/4
f 176/2/4 178/2/4 180/2/4
f 178/3/4 179/3/4 180/3/4
f 179/3/4 174/3/4 181/3/4
f 180/3/4 179/3/4 181/3/4
f 176/2/4 180/2/4 182/2/4
f 180/2/4 181/2/4 182/2/4
f 181/3/4 174/3/4 183/3/4
f 182/2/4 181/2/4 183/2/4
f 183/3/4 174/3/4 184/3/4
f 174/2/4 175/2/4 185/2/4
f 184/3/4 174/3/4 185/3/4
f 185/2/4 175/2/4 186/2/4
f 187/3/4 188/3/4 189/3/4
f 189/3/4 188/3/4 190/3/4
f 195/2/5 192/2/5 191/2/5
f 196/2/5 192/2/5 195/2/5
f 197/2/5 194/2/5 193/2/5
f 198/2/5 194/2/5 197/2/5
f 201/3/5 200/3/5 199/3/5
f 202/3/5 200/3/5 201/3/5
f 207/3/5 204/3/5 203/3/5
f 208/3/5 204/3/5 207/3/5
f 209/3/5 206/3/5 205/3/5
f 210/3/5 206/3/5 209/3/5
f 213/2/5 212/2/5 211/2/5
f 214/2/5 212/2/5 213/2/5
f 217/2/5 216/2/5 215/2/5
f 218/2/5 216/2/5 217/2/5
f 223/2/5 220/2/5 219/2/5
f 224/2/5 220/2/5 223/2/5
f 225/2/5 222/2/5 221/2/5
f 226/2/5 222/2/5 225/2/5
f 231/1/5 228/1/5 227/1/5
f 232/1/5 228/1/5 231/1/5
f 235/3/5 230/3/5 229/3/5
f 236/3/5 230/3/5 235/3/5
f 237/3/5 234/3/5 233/3/5
f 238/3/5 234/3/5 237/3/5
f 243/3/5 240/3/5 239/3/5
f 244/3/5 240/3/5 243/3/5
f 245/3/5 242/3/5 241/3/5
f 246/3/5 242/3/5 245/3/5
f 249/3/5 248/3/5 247/3/5
f 250/3/5 248/3/5 249/3/5
f 251/3/5 249/3/5 247/3/5
f 252/3/5 248/3/5 250/3/5
f 253/3/5 251/3/5 247/3/5
f 253/3/5 252/3/5 251/3/5
f 254/3/5 248/3/5 252/3/5
f 254/3/5 252/3/5 253/3/5
f 255/1/6 256/1/6 257/1/6
f 257/1/6 256/1/6 258/1/6
f 259/3/6 260/3/6 261/3/6
f 261/3/6 260/3/6 262/3/6
